<svg xmlns="http://www.w3.org/2000/svg" width="475.52" height="161.382" viewBox="0 0 475.52 161.382">
  <g id="Group_28" data-name="Group 28" transform="translate(-225.285 -161.992)">
    <g id="Group_26" data-name="Group 26">
      <g id="Group_25" data-name="Group 25">
        <g id="Group_24" data-name="Group 24">
          <path id="Path_57" data-name="Path 57" d="M358.37,323.374c-4.916-4.363-9.754-8.819-14.763-13.073C319,289.4,291.854,272.8,261.317,261.963a241.592,241.592,0,0,0-33.2-9.172c-3.43-.69-3.446-.727-1.615-3.61q15.257-24.02,30.532-48.029,11.83-18.627,23.62-37.278c.839-1.33,1.588-2.163,3.431-1.795,17.132,3.426,33.326,9.139,47.636,19.432a86.587,86.587,0,0,1,21.1,21.653,2.778,2.778,0,0,1,.869,2.219c-1.823-1.437-3.472-2.768-5.151-4.058-16.168-12.42-33.6-22.273-53.757-26.689-2.479-.543-3.77.14-5,2.341q-18.144,32.538-36.462,64.979c-2.351,4.188-2.112,3.389,1.8,4.548a177.334,177.334,0,0,1,67.115,37.313c13.359,11.7,25.1,24.869,36.127,38.726a2.806,2.806,0,0,1,.284.623Z" fill="#ffffff"/>
          <path id="Path_58" data-name="Path 58" d="M341.946,317.2c-.963.186-1.64-.484-2.38-.858-20.364-10.31-41.36-18.959-63.647-24.2A179.427,179.427,0,0,0,229.06,287.2c-3.3.1-3.325.011-1.679-2.822,3.354-5.769,6.78-11.5,10.082-17.293.853-1.5,1.859-1.658,3.39-1.314A220.436,220.436,0,0,1,281.3,279.227c21.713,9.534,41.52,22.165,59.96,37.006C341.555,316.474,341.962,316.645,341.946,317.2Z" fill="#ffffff"/>
        </g>
      </g>
    </g>
    <g id="Group_27" data-name="Group 27">
      <text id="BOOKISIA" transform="translate(335.805 268.925)" fill="#ffffff" font-size="70.161" font-family="Helvetica" letter-spacing="0.06em"><tspan x="0" y="0">BOOKISIA</tspan></text>
      <text id="BOOKINGS_MADE_EASY" data-name="BOOKINGS MADE EASY" transform="translate(339.483 291.425)" fill="#ffffff" font-size="18" font-family="Helvetica" letter-spacing="0.38em"><tspan x="0" y="0">BOOKINGS MADE EASY</tspan></text>
    </g>
  </g>
</svg>
