<svg xmlns="http://www.w3.org/2000/svg" width="937" height="446" viewBox="0 0 937 446">
<g>
<path d="M 526.73 368.00 C523.78,370.32 522.85,370.45 521.20,368.80 C519.30,366.90 519.47,143.42 521.37,142.69 C523.36,141.92 556.38,141.82 558.34,142.58 C559.25,142.93 560.00,144.27 560.00,145.55 C560.00,146.84 561.01,148.59 562.25,149.46 C563.49,150.33 564.39,151.25 564.25,151.52 C563.59,152.79 564.14,154.00 565.36,154.00 C566.87,154.00 576.00,144.66 576.00,143.12 C576.00,141.72 579.11,141.22 581.82,142.18 C584.33,143.07 587.71,141.74 589.66,139.10 C590.62,137.80 592.73,137.59 602.02,137.86 C608.83,138.06 614.59,138.77 616.70,139.65 C618.62,140.45 619.96,140.74 619.69,140.30 C619.41,139.86 620.27,139.44 621.60,139.36 C622.92,139.28 624.00,139.64 624.00,140.16 C624.00,140.69 623.50,140.81 622.90,140.44 C622.29,140.06 622.57,140.93 623.51,142.38 C624.81,144.36 626.06,145.00 628.64,145.00 C631.28,145.00 632.29,145.55 633.16,147.45 C633.86,149.00 635.78,150.39 638.39,151.23 C640.65,151.97 642.41,153.07 642.29,153.67 C642.04,154.99 645.95,158.70 646.85,158.00 C647.21,157.73 648.00,159.04 648.61,160.93 C649.22,162.81 650.74,165.18 651.99,166.19 C653.24,167.20 654.55,169.49 654.92,171.27 C655.39,173.59 656.20,174.59 657.80,174.82 C659.03,175.00 659.77,175.56 659.46,176.07 C659.14,176.58 659.70,177.01 660.69,177.02 C662.18,177.03 662.24,177.19 661.05,177.95 C659.81,178.73 659.91,179.57 661.77,183.68 C664.29,189.28 665.59,194.36 666.44,201.88 C666.77,204.84 667.30,207.68 667.62,208.19 C668.37,209.41 668.38,239.31 667.62,244.50 C667.30,246.70 666.60,250.03 666.05,251.89 C665.50,253.76 665.30,255.68 665.60,256.15 C665.89,256.63 665.02,259.38 663.66,262.26 C662.31,265.14 660.66,269.52 660.01,272.00 C659.36,274.48 657.99,277.40 656.97,278.50 C655.96,279.60 654.91,281.70 654.65,283.16 C654.38,284.63 651.68,288.45 648.64,291.66 C645.60,294.87 642.15,299.55 640.98,302.05 C639.09,306.08 638.47,306.60 635.60,306.60 C633.63,306.60 631.41,307.47 629.98,308.80 C628.69,310.01 626.77,311.00 625.72,311.00 C624.65,311.00 623.58,311.88 623.29,313.00 C622.79,314.90 621.93,315.00 606.28,315.00 C590.21,315.00 589.71,314.94 586.86,312.53 C584.90,310.88 582.81,310.11 580.57,310.19 C577.86,310.29 576.58,309.59 573.90,306.54 L 570.59 302.77 L 568.27 305.64 C566.99,307.21 565.51,309.04 564.98,309.71 C564.40,310.42 564.00,320.59 564.00,334.28 L 564.00 357.64 L 559.79 360.40 C556.12,362.81 554.50,363.18 547.12,363.33 C541.40,363.45 538.53,363.91 538.25,364.76 C538.00,365.49 536.08,366.00 533.55,366.00 C530.78,366.00 528.37,366.71 526.73,368.00 ZM 774.96 315.02 C771.84,316.69 744.56,315.71 742.32,313.85 C741.64,313.29 740.65,313.10 740.11,313.43 C739.58,313.76 738.81,313.51 738.41,312.86 C739.87,313.04 740.07,312.92 739.59,312.15 C739.07,311.30 738.34,311.28 736.82,312.10 C735.15,312.99 734.19,312.78 731.77,310.99 C730.13,309.77 727.08,308.55 725.00,308.27 C722.23,307.90 720.91,307.11 720.09,305.31 C719.19,303.32 718.37,302.91 715.80,303.18 C712.99,303.46 712.54,303.15 711.83,300.43 C711.36,298.60 709.93,296.78 708.31,295.93 C704.50,293.94 699.00,287.94 699.00,285.79 C699.00,284.81 698.40,284.00 697.66,284.00 C696.05,284.00 694.00,279.82 694.00,276.52 C694.00,274.14 691.68,271.00 689.93,271.00 C689.42,271.00 689.00,269.48 689.00,267.62 C689.00,265.31 688.34,263.81 686.92,262.86 C685.13,261.67 684.77,260.20 684.38,252.49 C684.13,247.54 683.66,242.82 683.34,242.00 C683.02,241.18 682.64,233.98 682.50,226.00 C682.36,218.02 681.91,210.69 681.50,209.71 C680.99,208.48 681.17,208.01 682.06,208.21 C682.88,208.39 683.63,206.99 684.10,204.41 C684.51,202.16 685.79,198.30 686.95,195.83 C688.11,193.36 689.19,189.64 689.36,187.56 C689.53,185.33 690.33,183.39 691.30,182.85 C692.20,182.35 693.41,180.21 693.97,178.10 C694.54,175.99 696.36,172.56 698.02,170.48 C699.67,168.40 700.83,166.50 700.59,166.26 C700.35,166.02 702.18,163.95 704.66,161.66 C707.14,159.37 711.16,155.56 713.59,153.20 C716.03,150.83 718.47,149.17 719.01,149.51 C719.56,149.85 720.42,149.04 720.92,147.71 C721.59,145.94 722.63,145.29 724.86,145.22 C726.53,145.18 729.16,144.20 730.71,143.05 C732.38,141.82 735.72,140.76 738.91,140.44 C741.87,140.15 745.09,139.49 746.08,138.96 C748.98,137.41 767.54,137.74 768.90,139.38 C769.52,140.13 771.89,141.05 774.14,141.41 C776.40,141.77 780.22,142.96 782.63,144.06 C786.10,145.64 787.46,145.83 789.10,144.95 C790.24,144.34 791.43,144.10 791.75,144.42 C792.07,144.74 791.80,145.00 791.16,145.00 C790.28,145.00 790.30,145.56 791.24,147.20 C792.91,150.13 795.77,152.57 799.81,154.54 C801.63,155.43 803.44,156.90 803.83,157.83 C806.15,163.32 810.75,169.13 813.30,169.79 C815.32,170.32 816.64,171.72 818.01,174.76 C819.05,177.09 819.47,179.00 818.95,179.00 C817.47,179.00 817.84,184.40 819.47,186.56 C820.28,187.63 820.95,189.97 820.97,191.77 C821.01,196.09 824.58,206.19 826.59,207.68 C827.66,208.46 827.95,209.57 827.49,211.03 C827.11,212.22 826.81,218.49 826.83,224.95 C826.85,234.22 826.50,237.29 825.18,239.46 L 823.50 242.22 L 778.11 242.36 C734.01,242.50 732.69,242.56 731.61,244.48 C731.00,245.56 729.90,246.94 729.16,247.53 C728.07,248.41 728.04,249.43 729.02,253.05 C729.69,255.50 730.33,258.11 730.44,258.86 C730.56,259.61 732.07,261.46 733.80,262.97 C735.53,264.48 736.72,265.95 736.44,266.23 C736.16,266.51 737.59,268.19 739.62,269.97 C742.87,272.83 743.77,273.13 747.27,272.57 C750.51,272.06 751.13,272.21 750.68,273.40 C750.28,274.42 751.00,275.04 753.06,275.43 C754.68,275.74 757.46,276.31 759.25,276.69 C761.04,277.07 762.95,277.24 763.50,277.07 C764.05,276.90 770.84,276.70 778.60,276.63 C788.63,276.54 793.15,276.12 794.28,275.18 C795.16,274.46 798.26,273.63 801.19,273.35 C804.11,273.07 808.01,272.16 809.86,271.32 C815.23,268.89 815.55,270.01 815.19,289.83 L 814.87 307.15 L 811.06 306.51 C807.85,305.97 806.81,306.27 804.49,308.42 C802.59,310.18 801.05,310.80 799.51,310.41 C798.29,310.11 795.61,310.56 793.55,311.41 C791.50,312.27 786.89,313.21 783.30,313.51 C779.72,313.80 775.96,314.48 774.96,315.02 ZM 180.50 314.99 C170.58,316.36 150.11,315.97 146.00,314.32 C145.18,313.99 143.82,313.61 143.00,313.48 C142.18,313.35 139.53,312.51 137.12,311.62 C134.72,310.73 131.34,310.00 129.62,309.99 C127.91,309.99 125.15,309.25 123.50,308.35 C121.85,307.45 118.93,306.43 117.00,306.08 C113.77,305.49 113.51,305.18 113.61,301.97 C114.31,279.76 114.16,268.55 113.14,268.21 C111.43,267.64 111.77,264.30 113.60,263.60 C114.54,263.24 116.36,263.97 118.03,265.37 C119.92,266.96 122.78,267.99 126.67,268.48 C129.92,268.88 133.76,270.12 135.38,271.27 C137.15,272.53 140.14,273.43 142.99,273.56 C145.57,273.69 148.99,274.45 150.59,275.26 C152.72,276.34 156.52,276.70 164.72,276.57 C175.70,276.40 177.50,276.00 177.50,273.70 C177.50,273.08 178.85,272.56 180.50,272.54 C183.31,272.50 183.52,272.23 183.81,268.25 C183.98,265.91 184.54,264.00 185.06,264.00 C185.58,264.00 186.00,262.34 186.00,260.30 C186.00,254.74 182.00,249.73 174.65,246.07 C168.74,243.14 162.00,241.98 162.00,243.91 C162.00,244.40 161.10,244.58 160.00,244.29 C158.90,244.00 158.00,243.07 158.00,242.22 C158.00,241.36 157.73,240.93 157.40,241.26 C157.08,241.59 155.21,240.96 153.25,239.86 C150.41,238.26 149.53,238.13 148.87,239.18 C148.11,240.38 147.59,239.62 147.88,237.75 C147.95,237.34 147.52,237.00 146.94,237.00 C146.36,237.00 146.10,236.64 146.37,236.21 C146.64,235.77 145.22,235.43 143.22,235.46 C140.56,235.49 139.30,234.96 138.54,233.50 C136.28,229.15 135.98,228.94 133.81,230.10 C130.98,231.62 126.24,229.62 127.91,227.61 C128.75,226.60 128.65,225.95 127.51,225.01 C126.68,224.32 126.00,224.09 126.00,224.50 C126.00,226.55 123.13,222.50 122.60,219.70 C122.26,217.86 120.85,215.62 119.32,214.49 C114.47,210.88 113.25,208.94 112.56,203.70 C112.18,200.85 111.15,197.01 110.27,195.16 C108.81,192.08 108.81,191.42 110.32,187.15 C111.22,184.59 112.24,180.48 112.58,178.00 C113.00,174.97 114.01,172.82 115.68,171.40 C117.29,170.04 118.34,167.87 118.70,165.18 C119.08,162.34 119.84,160.87 121.13,160.46 C122.16,160.13 123.00,159.51 123.00,159.08 C123.00,158.65 125.48,156.32 128.51,153.90 C131.54,151.48 134.30,148.60 134.65,147.50 C135.57,144.54 136.92,144.06 140.36,145.51 C143.08,146.65 143.62,146.59 145.04,144.95 C145.92,143.94 147.74,142.90 149.07,142.65 C150.41,142.40 153.52,141.44 156.00,140.53 C159.02,139.41 164.77,138.71 173.50,138.42 C180.65,138.18 187.40,137.82 188.50,137.62 C189.60,137.42 191.40,137.74 192.50,138.33 C193.60,138.92 195.40,139.46 196.50,139.54 C206.79,140.24 211.61,141.34 214.27,143.57 C215.85,144.91 218.44,146.00 220.01,146.00 L 222.87 146.00 L 223.19 164.25 C223.36,174.29 223.32,183.11 223.11,183.85 C222.83,184.80 221.81,184.99 219.61,184.51 C217.90,184.14 214.95,183.59 213.05,183.31 C211.15,183.02 208.68,182.21 207.55,181.51 C206.42,180.80 201.07,179.66 195.65,178.97 C187.33,177.91 185.65,177.93 184.90,179.11 C184.30,180.03 183.75,180.15 183.25,179.46 C182.59,178.54 179.35,177.36 172.32,175.49 C169.89,174.84 164.63,176.90 161.32,179.80 C159.40,181.48 159.19,182.45 159.61,187.85 C159.88,191.23 159.72,194.00 159.26,194.00 C157.95,194.00 158.00,197.76 159.32,198.84 C159.97,199.38 163.65,201.47 167.50,203.49 C173.46,206.62 175.22,207.10 179.33,206.72 C181.99,206.48 183.64,206.60 183.00,207.00 C182.17,207.51 182.27,207.89 183.35,208.30 C184.19,208.63 185.02,208.45 185.20,207.91 C185.40,207.31 186.83,207.39 188.99,208.15 C193.19,209.61 194.07,210.27 198.85,215.56 C199.77,216.58 201.21,216.86 203.36,216.46 C206.08,215.95 206.85,216.31 208.85,219.01 C210.13,220.74 211.38,221.95 211.63,221.70 C212.21,221.12 218.00,226.86 218.00,228.01 C218.00,228.48 218.82,229.13 219.82,229.44 C223.73,230.68 226.69,235.68 230.46,247.33 C233.95,258.16 234.23,259.84 233.73,267.10 C233.37,272.35 232.47,276.40 231.08,279.08 C229.91,281.31 229.27,283.62 229.64,284.22 C230.05,284.89 229.84,285.02 229.09,284.55 C228.34,284.09 227.94,284.32 228.05,285.15 C228.42,287.87 227.96,288.78 225.90,289.32 C224.74,289.62 224.05,290.27 224.36,290.77 C225.25,292.21 222.07,296.00 219.98,296.00 C217.83,296.00 215.57,299.44 216.36,301.51 C217.09,303.39 214.80,305.02 212.34,304.38 C211.03,304.04 210.06,304.40 209.69,305.37 C209.27,306.47 209.58,306.75 210.80,306.37 C212.22,305.94 212.25,306.01 211.00,306.81 C210.18,307.35 208.38,307.69 207.00,307.58 C205.62,307.47 202.70,308.34 200.50,309.51 C195.62,312.10 189.74,313.72 180.50,314.99 ZM 312.44 315.09 C304.40,316.09 287.97,316.07 285.47,315.05 C284.35,314.59 282.84,313.51 282.11,312.64 C281.39,311.77 279.16,310.75 277.15,310.38 C275.14,310.01 273.27,309.39 273.00,309.01 C272.73,308.62 270.48,307.04 268.02,305.49 C265.56,303.95 262.71,301.63 261.70,300.34 C260.68,299.05 259.24,298.00 258.50,298.00 C256.89,298.00 253.71,291.60 249.52,279.95 C248.03,275.80 247.95,267.96 248.69,191.45 L 249.50 107.50 L 256.50 106.85 C263.77,106.17 273.00,102.89 273.00,100.97 C273.00,100.28 273.84,100.13 275.25,100.58 C279.56,101.96 286.40,101.13 288.14,99.02 C289.38,97.53 290.00,97.35 290.65,98.27 C291.64,99.68 291.60,130.96 290.60,135.50 C289.36,141.18 290.14,141.44 309.99,141.85 L 328.06 142.22 L 329.58 145.16 C331.80,149.44 331.47,173.34 329.15,177.33 C327.69,179.83 327.10,180.08 324.00,179.52 C316.24,178.11 300.86,177.81 297.95,179.02 C296.34,179.69 295.29,180.66 295.61,181.18 C295.94,181.71 295.39,181.99 294.40,181.82 C291.38,181.28 290.88,188.16 291.21,226.05 C291.45,254.80 291.29,260.71 293.85,264.97 C294.75,266.47 295.99,267.77 297.71,269.77 C299.71,272.12 301.63,273.21 304.50,273.62 C306.70,273.93 309.92,274.82 311.65,275.60 C313.38,276.37 316.14,277.00 317.78,277.00 C319.42,277.00 321.32,277.67 322.00,278.50 C323.88,280.77 324.73,280.34 326.00,276.51 C326.99,273.49 327.41,273.15 329.06,274.03 C330.78,274.95 330.96,276.25 330.93,287.25 C330.86,306.60 328.88,312.00 321.86,312.00 C320.38,312.00 318.99,312.53 318.77,313.18 C318.56,313.82 315.71,314.69 312.44,315.09 ZM 395.08 258.00 L 395.00 310.50 L 349.00 310.50 L 349.00 227.29 C349.00,148.61 349.10,144.02 350.78,143.12 C351.75,142.60 360.36,142.04 369.90,141.88 C387.00,141.59 387.28,141.62 389.12,143.90 C390.16,145.18 391.00,147.02 391.00,147.99 C391.00,150.67 393.55,152.26 396.74,151.56 C399.57,150.93 402.50,147.62 401.56,146.10 C401.28,145.65 402.58,145.45 404.44,145.66 C407.07,145.94 408.25,145.50 409.67,143.71 C410.67,142.44 412.40,141.01 413.50,140.54 C416.81,139.12 429.25,139.28 432.00,140.78 L 434.50 142.14 L 434.50 160.32 C434.50,160.89 434.50,161.44 434.50,161.98 C434.51,173.92 434.51,178.84 432.11,180.75 C430.43,182.09 427.56,181.95 422.70,181.72 C422.38,181.70 422.06,181.68 421.73,181.67 C416.91,181.44 412.74,181.61 412.47,182.05 C412.20,182.49 410.66,183.14 409.04,183.49 C407.43,183.84 404.17,185.67 401.81,187.54 C397.76,190.74 397.43,191.39 396.33,198.22 C395.54,203.08 395.13,222.97 395.08,258.00 ZM 495.81 308.74 C494.54,309.80 458.60,310.97 451.75,310.18 L 449.00 309.87 L 449.00 141.96 L 471.75 142.23 L 494.50 142.50 L 495.06 222.50 C495.37,266.50 495.97,303.65 496.39,305.06 C496.91,306.79 496.72,307.99 495.81,308.74 ZM 592.00 278.47 C593.92,279.21 595.58,279.85 595.68,279.90 C596.38,280.29 605.05,270.89 604.63,270.21 C604.33,269.73 604.63,269.29 605.29,269.23 C613.46,268.53 616.94,266.00 616.98,260.71 C616.99,259.18 617.98,256.03 619.18,253.71 C621.67,248.92 622.79,243.38 623.89,230.50 C624.41,224.48 624.32,221.27 623.61,220.80 C623.03,220.42 622.88,219.79 623.27,219.40 C623.66,219.00 623.53,218.14 622.97,217.47 C622.42,216.80 621.74,212.71 621.46,208.38 C621.09,202.52 620.45,199.86 618.95,198.00 C617.85,196.62 616.29,194.07 615.49,192.32 C613.62,188.25 605.98,181.00 601.20,178.78 C597.17,176.90 587.50,176.39 586.50,178.00 C586.16,178.55 583.16,179.00 579.83,179.00 C573.82,179.00 573.76,179.03 568.64,184.39 L 563.50 189.79 L 564.33 220.14 C565.20,252.51 565.23,254.46 564.89,258.81 C564.77,260.36 565.73,263.97 567.02,266.84 C569.65,272.66 571.56,273.65 578.13,272.59 C581.65,272.03 582.24,272.21 582.71,273.99 C583.01,275.16 584.36,276.26 585.87,276.58 C587.32,276.89 590.08,277.74 592.00,278.47 ZM 454.74 118.86 C454.11,119.49 452.55,120.00 451.27,120.00 L 448.94 120.00 L 449.22 106.34 C449.42,96.79 449.40,93.70 450.88,92.58 C451.66,91.98 452.87,91.94 454.75,91.77 C455.44,91.72 456.00,91.26 456.00,90.76 C456.00,90.26 454.54,90.00 452.75,90.17 C449.76,90.47 449.48,90.25 449.20,87.38 C448.93,84.63 449.20,84.25 451.37,84.25 C452.74,84.25 455.80,83.30 458.19,82.15 C461.33,80.63 463.56,80.22 466.25,80.65 C468.40,81.00 471.26,80.72 473.04,79.98 C474.73,79.29 478.67,78.60 481.80,78.45 C484.94,78.31 489.19,77.86 491.25,77.46 C494.11,76.91 495.02,77.07 495.08,78.12 C495.12,78.88 495.09,86.47 495.00,95.00 C494.84,112.24 494.25,113.99 488.60,114.02 C486.15,114.03 485.81,114.25 487.00,115.08 C488.15,115.88 487.91,115.97 486.00,115.45 C484.29,114.99 483.51,114.76 482.73,114.74 C482.01,114.73 481.29,114.90 479.87,115.24 C479.75,115.27 479.63,115.30 479.50,115.33 C477.85,115.72 475.38,116.28 474.00,116.59 C472.62,116.90 467.99,117.28 463.69,117.43 C459.40,117.59 455.37,118.23 454.74,118.86 ZM 730.22 208.29 C731.47,208.53 743.42,208.79 756.77,208.86 L 781.04 209.00 L 782.20 206.45 C783.09,204.51 783.08,203.12 782.18,200.63 C781.53,198.83 780.99,196.04 780.99,194.43 C780.96,189.31 779.93,187.34 776.42,185.66 C774.53,184.76 773.05,183.68 773.11,183.26 C773.54,180.60 772.69,178.83 770.60,178.04 C769.28,177.53 767.90,176.65 767.54,176.06 C766.71,174.72 761.32,174.67 760.50,176.00 C759.72,177.26 754.00,177.32 754.00,176.07 C754.00,174.25 750.06,173.92 747.05,175.47 C745.37,176.34 744.00,177.46 744.00,177.96 C744.00,178.46 742.76,179.01 741.25,179.18 C739.15,179.42 738.52,180.02 738.57,181.69 C738.61,182.90 738.39,183.83 738.07,183.78 C737.76,183.72 736.34,184.00 734.93,184.40 C731.05,185.50 729.32,189.53 728.59,199.18 C727.95,207.65 727.98,207.86 730.22,208.29 ZM 659.34 243.01 C658.86,247.59 658.99,249.12 659.82,248.61 C660.44,248.23 660.96,246.25 660.97,244.21 C660.98,242.17 661.25,237.41 661.58,233.64 C661.97,229.24 661.79,226.39 661.09,225.69 C660.30,224.90 660.00,226.28 660.00,230.65 C660.00,233.98 659.70,239.54 659.34,243.01 ZM 281.24 106.75 C280.98,107.57 281.90,108.00 283.92,108.00 C286.05,108.00 287.00,107.52 287.00,106.43 C287.00,104.53 281.88,104.81 281.24,106.75 ZM 792.17 283.13 C793.75,284.13 794.83,284.12 797.43,283.10 C800.31,281.98 797.78,280.89 794.02,281.65 C791.78,282.09 791.23,282.53 792.17,283.13 ZM 146.75 283.31 C147.71,283.56 148.73,283.81 149.00,283.87 C149.27,283.92 150.18,283.53 151.00,283.00 C152.33,282.14 152.33,282.03 151.00,282.00 C150.18,281.99 148.49,281.70 147.25,281.37 C145.97,281.03 145.00,281.22 145.00,281.81 C145.00,282.38 145.79,283.06 146.75,283.31 ZM 720.40 264.60 C720.88,265.86 721.37,266.03 722.17,265.23 C722.77,264.63 722.97,263.35 722.60,262.40 C722.12,261.14 721.63,260.97 720.83,261.77 C720.23,262.37 720.03,263.65 720.40,264.60 ZM 190.20 265.80 C191.88,267.48 192.01,267.36 191.92,264.25 C191.88,262.74 191.61,262.07 191.34,262.76 C191.06,263.45 190.42,263.76 189.91,263.45 C188.58,262.62 188.80,264.40 190.20,265.80 ZM 701.18 183.45 C700.99,184.35 701.54,185.00 702.50,185.00 C703.53,185.00 704.02,184.34 703.81,183.25 C703.40,181.14 701.63,181.28 701.18,183.45 ZM 756.78 283.76 C754.64,284.80 754.71,284.87 757.95,284.93 C760.58,284.98 761.12,284.72 760.23,283.83 C759.37,282.97 758.47,282.95 756.78,283.76 ZM 720.69 185.36 C721.82,186.49 723.00,186.05 723.00,184.50 C723.00,183.68 722.58,183.00 722.06,183.00 C720.80,183.00 719.89,184.56 720.69,185.36 ZM 400.23 177.81 C400.01,178.47 400.55,179.00 401.42,179.00 C402.29,179.00 403.00,178.29 403.00,177.42 C403.00,175.65 400.85,175.96 400.23,177.81 ZM 307.50 283.00 C307.84,283.55 308.51,284.00 309.00,284.00 C309.49,284.00 310.16,283.55 310.50,283.00 C310.84,282.45 310.16,282.00 309.00,282.00 C307.84,282.00 307.16,282.45 307.50,283.00 Z" fill="rgb(9,37,63)"/>
<path d="M 318.97 315.94 C313.11,317.22 293.14,318.18 289.00,317.38 C278.27,315.29 265.74,308.74 259.35,301.88 C254.46,296.63 250.12,289.11 247.96,282.14 C246.08,276.04 246.00,272.45 246.00,190.91 L 246.00 106.04 L 248.25 105.52 C254.70,104.03 293.42,96.00 294.15,96.00 C294.62,96.00 295.00,105.68 295.00,117.50 L 295.00 139.00 L 333.04 139.00 L 332.77 160.25 L 332.50 181.50 L 295.00 182.04 L 295.00 220.86 C295.00,259.54 295.01,259.70 297.32,264.09 C301.70,272.41 312.55,275.77 324.85,272.62 C328.32,271.73 331.58,271.00 332.08,271.00 C332.61,271.00 333.00,279.52 333.00,291.04 L 333.00 311.07 L 328.72 312.91 C326.37,313.91 321.98,315.28 318.97,315.94 ZM 312.44 315.09 C315.71,314.69 318.56,313.82 318.77,313.18 C318.99,312.53 320.38,312.00 321.86,312.00 C328.88,312.00 330.86,306.60 330.93,287.25 C330.96,276.25 330.78,274.95 329.06,274.03 C327.41,273.15 326.99,273.49 326.00,276.51 C324.73,280.34 323.88,280.77 322.00,278.50 C321.32,277.67 319.42,277.00 317.78,277.00 C316.14,277.00 313.38,276.37 311.65,275.60 C309.92,274.82 306.70,273.93 304.50,273.62 C301.63,273.21 299.71,272.12 297.71,269.77 C295.99,267.77 294.75,266.47 293.85,264.97 C291.29,260.71 291.45,254.80 291.21,226.05 C290.88,188.16 291.38,181.28 294.40,181.82 C295.39,181.99 295.94,181.71 295.61,181.18 C295.29,180.66 296.34,179.69 297.95,179.02 C300.86,177.81 316.24,178.11 324.00,179.52 C327.10,180.08 327.69,179.83 329.15,177.33 C331.47,173.34 331.80,149.44 329.58,145.16 L 328.06 142.22 L 309.99 141.85 C290.14,141.44 289.36,141.18 290.60,135.50 C291.60,130.96 291.64,99.68 290.65,98.27 C290.00,97.35 289.38,97.53 288.14,99.02 C286.40,101.13 279.56,101.96 275.25,100.58 C273.84,100.13 273.00,100.28 273.00,100.97 C273.00,102.89 263.77,106.17 256.50,106.85 L 249.50 107.50 L 248.69 191.45 C247.95,267.96 248.03,275.80 249.52,279.95 C253.71,291.60 256.89,298.00 258.50,298.00 C259.24,298.00 260.68,299.05 261.70,300.34 C262.71,301.63 265.56,303.95 268.02,305.49 C270.48,307.04 272.73,308.62 273.00,309.01 C273.27,309.39 275.14,310.01 277.15,310.38 C279.16,310.75 281.39,311.77 282.11,312.64 C282.84,313.51 284.35,314.59 285.47,315.05 C287.97,316.07 304.40,316.09 312.44,315.09 ZM 592.00 278.47 C590.08,277.74 587.32,276.89 585.87,276.58 C584.36,276.26 583.01,275.16 582.71,273.99 C582.24,272.21 581.65,272.03 578.13,272.59 C571.56,273.65 569.65,272.66 567.02,266.84 C565.73,263.97 564.77,260.36 564.89,258.81 C565.23,254.46 565.20,252.51 564.33,220.14 L 563.50 189.79 L 568.64 184.39 C573.76,179.03 573.82,179.00 579.83,179.00 C583.16,179.00 586.16,178.55 586.50,178.00 C587.50,176.39 597.17,176.90 601.20,178.78 C605.98,181.00 613.62,188.25 615.49,192.32 C616.29,194.07 617.85,196.62 618.95,198.00 C620.45,199.86 621.09,202.52 621.46,208.38 C621.74,212.71 622.42,216.80 622.97,217.47 C623.53,218.14 623.66,219.00 623.27,219.40 C622.88,219.79 623.03,220.42 623.61,220.80 C624.32,221.27 624.41,224.48 623.89,230.50 C622.79,243.38 621.67,248.92 619.18,253.71 C617.98,256.03 616.99,259.18 616.98,260.71 C616.94,266.00 613.46,268.53 605.29,269.23 C604.63,269.29 604.33,269.73 604.63,270.21 C605.05,270.89 596.38,280.29 595.68,279.90 C595.58,279.85 593.92,279.21 592.00,278.47 ZM 584.22 272.94 C590.59,274.19 592.16,274.14 597.67,272.50 C607.31,269.64 615.35,259.75 619.62,245.50 C620.95,241.05 621.41,236.15 621.40,226.50 C621.39,214.95 621.08,212.61 618.63,205.50 C613.97,191.93 607.25,184.02 598.14,181.36 C588.77,178.62 575.52,181.71 569.46,188.05 L 566.68 190.95 L 567.32 227.60 C567.70,249.61 568.36,264.73 568.96,265.46 C570.76,267.62 579.84,272.08 584.22,272.94 ZM 526.73 368.00 C528.37,366.71 530.78,366.00 533.55,366.00 C536.08,366.00 538.00,365.49 538.25,364.76 C538.53,363.91 541.40,363.45 547.12,363.33 C554.50,363.18 556.12,362.81 559.79,360.40 L 564.00 357.64 L 564.00 334.28 C564.00,320.59 564.40,310.42 564.98,309.71 C565.40,309.18 566.42,307.92 567.46,306.64 C567.20,309.39 567.00,320.64 567.00,334.00 C567.00,349.40 566.84,362.00 566.64,362.00 C566.45,362.00 555.76,364.25 542.90,367.00 C530.04,369.75 518.95,372.00 518.26,372.00 C517.25,372.00 517.00,348.43 517.00,255.50 L 517.00 139.00 L 561.77 139.00 L 562.47 143.63 C563.59,151.14 563.76,151.28 567.85,148.08 C570.48,146.02 573.24,144.22 576.12,142.68 C576.04,142.81 576.00,142.96 576.00,143.12 C576.00,144.66 566.87,154.00 565.36,154.00 C564.14,154.00 563.59,152.79 564.25,151.52 C564.39,151.25 563.49,150.33 562.25,149.46 C561.01,148.59 560.00,146.84 560.00,145.55 C560.00,144.27 559.25,142.93 558.34,142.58 C556.38,141.82 523.36,141.92 521.37,142.69 C519.47,143.42 519.30,366.90 521.20,368.80 C522.85,370.45 523.78,370.32 526.73,368.00 ZM 395.08 258.00 C395.13,222.97 395.54,203.08 396.33,198.22 C397.43,191.39 397.76,190.74 401.81,187.54 C404.17,185.67 407.43,183.84 409.04,183.49 C410.66,183.14 412.20,182.49 412.47,182.05 C412.74,181.61 416.91,181.44 421.73,181.67 C422.06,181.68 422.38,181.70 422.70,181.72 C427.56,181.95 430.43,182.09 432.11,180.75 C434.51,178.84 434.51,173.92 434.50,161.98 C434.50,161.44 434.50,160.89 434.50,160.32 L 434.50 142.14 L 432.00 140.78 C429.25,139.28 416.81,139.12 413.50,140.54 C412.40,141.01 410.67,142.44 409.67,143.71 C408.25,145.50 407.07,145.94 404.44,145.66 C402.58,145.45 401.28,145.65 401.56,146.10 C402.50,147.62 399.57,150.93 396.74,151.56 C396.18,151.68 395.63,151.73 395.12,151.72 C395.91,151.05 397.67,149.24 399.57,147.14 C405.76,140.25 412.14,137.64 423.00,137.56 C427.67,137.53 432.74,137.85 434.25,138.27 L 437.00 139.04 L 437.00 184.50 L 425.25 184.50 C414.11,184.50 413.23,184.65 408.17,187.45 C405.23,189.08 401.75,191.70 400.42,193.28 L 398.00 196.15 L 398.00 314.00 L 349.00 314.00 L 349.00 139.00 L 391.84 139.00 L 392.39 141.75 C392.69,143.26 393.22,146.19 393.58,148.25 C393.84,149.76 394.18,151.08 394.45,151.67 C392.41,151.38 391.00,149.99 391.00,147.99 C391.00,147.02 390.16,145.18 389.12,143.90 C387.28,141.62 387.00,141.59 369.90,141.88 C360.36,142.04 351.75,142.60 350.78,143.12 C349.10,144.02 349.00,148.58 349.00,226.50 L 349.00 227.29 L 349.00 310.50 L 395.00 310.50 ZM 495.81 308.74 C496.72,307.99 496.91,306.79 496.39,305.06 C495.97,303.65 495.37,266.50 495.06,222.50 L 494.50 142.50 L 471.75 142.23 L 449.00 141.96 L 449.00 139.00 L 499.00 139.00 L 499.00 314.00 L 449.00 314.00 L 449.00 309.87 L 451.75 310.18 C458.60,310.97 494.54,309.80 495.81,308.74 ZM 184.34 179.74 C184.52,179.61 184.71,179.40 184.90,179.11 C185.65,177.93 187.33,177.91 195.65,178.97 C201.07,179.66 206.42,180.80 207.55,181.51 C208.68,182.21 211.15,183.02 213.05,183.31 C214.95,183.59 217.90,184.14 219.61,184.51 C221.81,184.99 222.83,184.80 223.11,183.85 C223.32,183.11 223.36,174.29 223.19,164.25 L 222.87 146.00 L 220.01 146.00 C218.44,146.00 215.85,144.91 214.27,143.57 C211.61,141.34 206.79,140.24 196.50,139.54 C195.40,139.46 193.60,138.92 192.50,138.33 C191.40,137.74 189.60,137.42 188.50,137.62 C187.40,137.82 180.65,138.18 173.50,138.42 C164.77,138.71 159.02,139.41 156.00,140.53 C153.52,141.44 150.41,142.40 149.07,142.65 C147.74,142.90 145.92,143.94 145.04,144.95 C143.62,146.59 143.08,146.65 140.36,145.51 C136.92,144.06 135.57,144.54 134.65,147.50 C134.30,148.60 131.54,151.48 128.51,153.90 C125.48,156.32 123.00,158.65 123.00,159.08 C123.00,159.51 122.16,160.13 121.13,160.46 C119.84,160.87 119.08,162.34 118.70,165.18 C118.34,167.87 117.29,170.04 115.68,171.40 C114.01,172.82 113.00,174.97 112.58,178.00 C112.24,180.48 111.22,184.59 110.32,187.15 C108.81,191.42 108.81,192.08 110.27,195.16 C111.15,197.01 112.18,200.85 112.56,203.70 C113.25,208.94 114.47,210.88 119.32,214.49 C120.85,215.62 122.26,217.86 122.60,219.70 C123.13,222.50 126.00,226.55 126.00,224.50 C126.00,224.09 126.68,224.32 127.51,225.01 C128.65,225.95 128.75,226.60 127.91,227.61 C127.57,228.01 127.50,228.42 127.62,228.80 C120.85,224.03 116.56,218.89 113.36,212.41 C110.08,205.78 109.65,203.98 109.25,195.25 C107.78,163.44 127.32,141.79 161.90,136.91 C178.25,134.60 202.11,136.83 219.25,142.26 L 226.00 144.39 L 226.00 191.89 L 219.75 188.99 C209.81,184.38 195.80,180.90 184.34,179.74 ZM 180.50 314.99 C189.74,313.72 195.62,312.10 200.50,309.51 C202.70,308.34 205.62,307.47 207.00,307.58 C207.79,307.64 208.73,307.56 209.54,307.37 C203.97,310.64 197.60,313.24 190.50,315.07 C181.26,317.44 160.58,318.40 149.50,316.98 C140.64,315.84 125.23,311.93 117.47,308.86 L 111.50 306.49 L 111.23 282.63 C111.02,263.66 111.22,258.88 112.23,259.32 C112.93,259.63 117.70,261.72 122.83,263.97 C145.16,273.75 168.48,277.36 178.00,272.49 C183.87,269.48 186.24,263.29 183.53,258.05 C181.04,253.25 175.37,249.81 160.89,244.43 C161.55,244.45 162.00,244.26 162.00,243.91 C162.00,241.98 168.74,243.14 174.65,246.07 C182.00,249.73 186.00,254.74 186.00,260.30 C186.00,262.34 185.58,264.00 185.06,264.00 C184.54,264.00 183.98,265.91 183.81,268.25 C183.52,272.23 183.31,272.50 180.50,272.54 C178.85,272.56 177.50,273.08 177.50,273.70 C177.50,276.00 175.70,276.40 164.72,276.57 C156.52,276.70 152.72,276.34 150.59,275.26 C148.99,274.45 145.57,273.69 142.99,273.56 C140.14,273.43 137.15,272.53 135.38,271.27 C133.76,270.12 129.92,268.88 126.67,268.48 C122.78,267.99 119.92,266.96 118.03,265.37 C116.36,263.97 114.54,263.24 113.60,263.60 C111.77,264.30 111.43,267.64 113.14,268.21 C114.16,268.55 114.31,279.76 113.61,301.97 C113.51,305.18 113.77,305.49 117.00,306.08 C118.93,306.43 121.85,307.45 123.50,308.35 C125.15,309.25 127.91,309.99 129.62,309.99 C131.34,310.00 134.72,310.73 137.12,311.62 C139.53,312.51 142.18,313.35 143.00,313.48 C143.82,313.61 145.18,313.99 146.00,314.32 C150.11,315.97 170.58,316.36 180.50,314.99 ZM 567.89 306.10 L 568.27 305.64 L 570.59 302.77 L 573.90 306.54 C576.58,309.59 577.86,310.29 580.57,310.19 C582.81,310.11 584.90,310.88 586.86,312.53 C589.71,314.94 590.21,315.00 606.28,315.00 C621.93,315.00 622.79,314.90 623.29,313.00 C623.58,311.88 624.65,311.00 625.72,311.00 C626.77,311.00 628.69,310.01 629.98,308.80 C631.41,307.47 633.63,306.60 635.60,306.60 C638.47,306.60 639.09,306.08 640.98,302.05 C642.15,299.55 645.60,294.87 648.64,291.66 C651.68,288.45 654.38,284.63 654.65,283.16 C654.91,281.70 655.96,279.60 656.97,278.50 C657.99,277.40 659.36,274.48 660.01,272.00 C660.66,269.52 662.31,265.14 663.66,262.26 C665.02,259.38 665.89,256.63 665.60,256.15 C665.30,255.68 665.50,253.76 666.05,251.89 C666.60,250.03 667.30,246.70 667.62,244.50 C668.38,239.31 668.37,209.41 667.62,208.19 C667.30,207.68 666.77,204.84 666.44,201.88 C665.59,194.36 664.29,189.28 661.77,183.68 C659.91,179.57 659.81,178.73 661.05,177.95 C661.33,177.77 661.53,177.63 661.67,177.51 C664.52,183.87 666.86,190.88 668.63,198.50 C671.45,210.56 671.25,243.88 668.29,256.56 C662.07,283.19 649.42,301.66 631.15,310.81 C611.61,320.59 592.31,320.15 574.17,309.52 C571.36,307.87 568.79,306.48 567.89,306.10 ZM 731.29 245.00 C731.41,244.82 731.52,244.65 731.61,244.48 C732.69,242.56 734.01,242.50 778.11,242.36 L 823.50 242.22 L 825.18 239.46 C826.50,237.29 826.85,234.22 826.83,224.95 C826.81,218.49 827.11,212.22 827.49,211.03 C827.95,209.57 827.66,208.46 826.59,207.68 C824.58,206.19 821.01,196.09 820.97,191.77 C820.95,189.97 820.28,187.63 819.47,186.56 C817.84,184.40 817.47,179.00 818.95,179.00 C819.47,179.00 819.05,177.09 818.01,174.76 C816.64,171.72 815.32,170.32 813.30,169.79 C810.75,169.13 806.15,163.32 803.83,157.83 C803.44,156.90 801.63,155.43 799.81,154.54 C795.77,152.57 792.91,150.13 791.24,147.20 C790.30,145.56 790.28,145.00 791.16,145.00 C791.54,145.00 791.79,144.91 791.86,144.77 C795.27,146.84 798.42,149.34 802.07,152.72 C819.55,168.91 828.96,195.62 828.99,229.12 C829.00,234.42 828.72,240.16 828.38,241.88 L 827.75 245.00 ZM 774.96 315.02 C775.96,314.48 779.72,313.80 783.30,313.51 C786.89,313.21 791.50,312.27 793.55,311.41 C795.61,310.56 798.29,310.11 799.51,310.41 C801.05,310.80 802.59,310.18 804.49,308.42 C806.81,306.27 807.85,305.97 811.06,306.51 L 813.96 307.00 L 810.75 308.51 C802.27,312.49 790.92,315.52 779.03,316.97 C734.71,322.36 700.10,304.05 687.06,268.32 C682.02,254.52 680.73,246.23 680.71,227.50 C680.70,219.01 680.85,213.84 681.37,209.37 C681.40,209.48 681.45,209.59 681.50,209.71 C681.91,210.69 682.36,218.02 682.50,226.00 C682.64,233.98 683.02,241.18 683.34,242.00 C683.66,242.82 684.13,247.54 684.38,252.49 C684.77,260.20 685.13,261.67 686.92,262.86 C688.34,263.81 689.00,265.31 689.00,267.62 C689.00,269.48 689.42,271.00 689.93,271.00 C691.68,271.00 694.00,274.14 694.00,276.52 C694.00,279.82 696.05,284.00 697.66,284.00 C698.40,284.00 699.00,284.81 699.00,285.79 C699.00,287.94 704.50,293.94 708.31,295.93 C709.93,296.78 711.36,298.60 711.83,300.43 C712.54,303.15 712.99,303.46 715.80,303.18 C718.37,302.91 719.19,303.32 720.09,305.31 C720.91,307.11 722.23,307.90 725.00,308.27 C727.08,308.55 730.13,309.77 731.77,310.99 C734.19,312.78 735.15,312.99 736.82,312.10 C738.34,311.28 739.07,311.30 739.59,312.15 C740.07,312.92 739.87,313.04 739.00,312.50 C738.81,313.51 739.58,313.76 740.11,313.43 C740.65,313.10 741.64,313.29 742.32,313.85 C744.56,315.71 771.84,316.69 774.96,315.02 ZM 791.06 144.29 C790.53,144.34 789.80,144.57 789.10,144.95 C787.46,145.83 786.10,145.64 782.63,144.06 C780.22,142.96 776.40,141.77 774.14,141.41 C771.89,141.05 769.52,140.13 768.90,139.38 C767.54,137.74 748.98,137.41 746.08,138.96 C745.09,139.49 741.87,140.15 738.91,140.44 C735.72,140.76 732.38,141.82 730.71,143.05 C729.16,144.20 726.53,145.18 724.86,145.22 C722.63,145.29 721.59,145.94 720.92,147.71 C720.42,149.04 719.56,149.85 719.01,149.51 C718.47,149.17 716.03,150.83 713.59,153.20 C711.16,155.56 707.14,159.37 704.66,161.66 C702.18,163.95 700.35,166.02 700.59,166.26 C700.83,166.50 699.67,168.40 698.02,170.48 C696.36,172.56 694.54,175.99 693.97,178.10 C693.41,180.21 692.20,182.35 691.30,182.85 C690.33,183.39 689.53,185.33 689.36,187.56 C689.19,189.64 688.11,193.36 686.95,195.83 C685.79,198.30 684.51,202.16 684.10,204.41 C683.63,206.99 682.88,208.39 682.06,208.21 C681.83,208.16 681.65,208.15 681.52,208.19 C681.82,205.89 682.24,203.73 682.79,201.31 C687.22,181.90 695.30,166.72 707.24,155.38 C715.56,147.48 722.66,143.16 733.74,139.26 C740.94,136.74 742.61,136.54 757.00,136.59 C771.03,136.64 773.19,136.89 779.73,139.22 C784.21,140.81 787.77,142.37 791.06,144.29 ZM 814.88 306.57 L 815.19 289.83 C815.55,270.01 815.23,268.89 809.86,271.32 C808.01,272.16 804.11,273.07 801.19,273.35 C798.26,273.63 795.16,274.46 794.28,275.18 C793.15,276.12 788.63,276.54 778.60,276.63 C770.84,276.70 764.05,276.90 763.50,277.07 C762.95,277.24 761.04,277.07 759.25,276.69 C757.46,276.31 754.68,275.74 753.06,275.43 C751.00,275.04 750.28,274.42 750.68,273.40 C751.13,272.21 750.51,272.06 747.27,272.57 C743.77,273.13 742.87,272.83 739.62,269.97 C737.59,268.19 736.16,266.51 736.44,266.23 C736.72,265.95 735.53,264.48 733.80,262.97 C732.07,261.46 730.56,259.61 730.44,258.86 C730.33,258.11 729.69,255.50 729.02,253.05 C728.04,249.43 728.07,248.41 729.16,247.53 C729.64,247.15 730.27,246.43 730.82,245.68 L 731.36 249.61 C732.25,256.07 736.68,263.66 741.88,267.64 C746.85,271.43 755.87,274.55 764.81,275.56 C776.41,276.87 800.10,272.78 811.87,267.44 C814.82,266.10 817.41,265.00 817.62,265.00 C817.83,265.00 818.00,274.02 818.00,285.05 L 818.00 305.10 ZM 216.45 302.62 C216.53,302.27 216.51,301.89 216.36,301.51 C215.57,299.44 217.83,296.00 219.98,296.00 C222.07,296.00 225.25,292.21 224.36,290.77 C224.05,290.27 224.74,289.62 225.90,289.32 C227.96,288.78 228.42,287.87 228.05,285.15 C227.94,284.32 228.34,284.09 229.09,284.55 C229.84,285.02 230.05,284.89 229.64,284.22 C229.27,283.62 229.91,281.31 231.08,279.08 C232.47,276.40 233.37,272.35 233.73,267.10 C234.23,259.84 233.95,258.16 230.46,247.33 C226.69,235.68 223.73,230.68 219.82,229.44 C218.82,229.13 218.00,228.48 218.00,228.01 C218.00,226.86 212.21,221.12 211.63,221.70 C211.38,221.95 210.13,220.74 208.85,219.01 C206.85,216.31 206.08,215.95 203.36,216.46 C201.21,216.86 199.77,216.58 198.85,215.56 C196.83,213.33 195.51,211.92 194.34,210.93 C194.60,210.98 194.87,211.00 195.15,211.00 C198.27,211.00 210.94,217.30 217.07,221.89 C228.36,230.35 234.66,242.42 235.66,257.47 C236.90,276.10 229.96,291.84 216.45,302.62 ZM 487.68 115.74 C487.75,115.65 487.51,115.44 487.00,115.08 C485.81,114.25 486.15,114.03 488.60,114.02 C494.25,113.99 494.84,112.24 495.00,95.00 C495.09,86.47 495.12,78.88 495.08,78.12 C495.02,77.07 494.11,76.91 491.25,77.46 C489.19,77.86 484.94,78.31 481.80,78.45 C478.67,78.60 474.73,79.29 473.04,79.98 C471.26,80.72 468.40,81.00 466.25,80.65 C463.56,80.22 461.33,80.63 458.19,82.15 C455.80,83.30 452.74,84.25 451.37,84.25 C450.00,84.25 449.39,84.40 449.19,85.20 C449.23,83.79 449.29,83.00 449.34,83.00 C449.67,83.00 467.89,79.14 486.93,75.03 C492.12,73.92 496.96,73.00 497.70,73.00 C498.79,73.00 498.99,76.84 498.77,93.21 L 498.50 113.42 ZM 661.47 177.05 C661.27,177.03 661.02,177.02 660.69,177.02 C659.70,177.01 659.14,176.58 659.46,176.07 C659.77,175.56 659.03,175.00 657.80,174.82 C656.20,174.59 655.39,173.59 654.92,171.27 C654.55,169.49 653.24,167.20 651.99,166.19 C650.74,165.18 649.22,162.81 648.61,160.93 C648.00,159.04 647.21,157.73 646.85,158.00 C645.95,158.70 642.04,154.99 642.29,153.67 C642.41,153.07 640.65,151.97 638.39,151.23 C635.78,150.39 633.86,149.00 633.16,147.45 C632.29,145.55 631.28,145.00 628.64,145.00 C626.06,145.00 624.81,144.36 623.51,142.38 C622.57,140.93 622.29,140.06 622.90,140.44 C623.50,140.81 624.00,140.69 624.00,140.16 C624.00,139.64 622.92,139.28 621.60,139.36 C620.27,139.44 619.41,139.86 619.69,140.30 C619.96,140.74 618.62,140.45 616.70,139.65 C614.59,138.77 608.83,138.06 602.02,137.86 C592.73,137.59 590.62,137.80 589.66,139.10 C587.71,141.74 584.33,143.07 581.82,142.18 C580.46,141.70 579.00,141.59 577.88,141.77 C590.17,135.74 604.31,134.37 618.56,138.01 C637.29,142.81 652.10,156.43 661.47,177.05 ZM 730.22 208.29 C727.98,207.86 727.95,207.65 728.59,199.18 C729.32,189.53 731.05,185.50 734.93,184.40 C736.34,184.00 737.76,183.72 738.07,183.78 C738.39,183.83 738.61,182.90 738.57,181.69 C738.52,180.02 739.15,179.42 741.25,179.18 C742.76,179.01 744.00,178.46 744.00,177.96 C744.00,177.46 745.37,176.34 747.05,175.47 C750.06,173.92 754.00,174.25 754.00,176.07 C754.00,177.32 759.72,177.26 760.50,176.00 C761.32,174.67 766.71,174.72 767.54,176.06 C767.90,176.65 769.28,177.53 770.60,178.04 C772.69,178.83 773.54,180.60 773.11,183.26 C773.05,183.68 774.53,184.76 776.42,185.66 C779.93,187.34 780.96,189.31 780.99,194.43 C780.99,196.04 781.53,198.83 782.18,200.63 C783.08,203.12 783.09,204.51 782.20,206.45 L 781.47 208.06 L 781.19 203.62 C780.49,192.75 774.69,182.96 766.64,179.07 C757.47,174.63 743.39,177.69 737.50,185.41 C732.09,192.51 728.22,206.25 731.12,208.11 C731.44,208.31 733.75,208.48 737.34,208.60 C733.41,208.51 730.77,208.40 730.22,208.29 ZM 187.48 207.70 C186.17,207.40 185.35,207.46 185.20,207.91 C185.02,208.45 184.19,208.63 183.35,208.30 C182.27,207.89 182.17,207.51 183.00,207.00 C183.64,206.60 181.99,206.48 179.33,206.72 C175.22,207.10 173.46,206.62 167.50,203.49 C163.65,201.47 159.97,199.38 159.32,198.84 C158.00,197.76 157.95,194.00 159.26,194.00 C159.72,194.00 159.88,191.23 159.61,187.85 C159.19,182.45 159.40,181.48 161.32,179.80 C164.63,176.90 169.89,174.84 172.32,175.49 C179.35,177.36 182.59,178.54 183.25,179.46 C183.30,179.53 183.36,179.60 183.42,179.66 C178.04,179.17 173.27,179.22 169.84,179.93 C162.93,181.36 159.80,184.35 159.80,189.51 C159.80,196.29 165.68,200.42 184.00,206.48 C185.23,206.89 186.40,207.30 187.48,207.70 ZM 454.74 118.86 C455.37,118.23 459.40,117.59 463.69,117.43 C467.99,117.28 472.62,116.90 474.00,116.59 C475.38,116.28 477.85,115.72 479.50,115.33 C479.63,115.30 479.75,115.27 479.87,115.24 C481.29,114.90 482.01,114.73 482.73,114.74 C483.51,114.76 484.29,114.99 486.00,115.45 C486.76,115.66 487.25,115.77 487.50,115.78 L 476.64 118.11 C464.61,120.69 453.47,123.06 451.89,123.37 L 449.00 123.95 L 449.00 120.00 L 451.27 120.00 C452.55,120.00 454.11,119.49 454.74,118.86 ZM 130.13 230.48 C131.32,230.75 132.71,230.69 133.81,230.10 C135.98,228.94 136.28,229.15 138.54,233.50 C139.30,234.96 140.56,235.49 143.22,235.46 C145.22,235.43 146.64,235.77 146.37,236.21 C146.10,236.64 146.36,237.00 146.94,237.00 C147.52,237.00 147.95,237.34 147.88,237.75 C147.77,238.48 147.77,239.04 147.87,239.38 C140.64,236.36 134.85,233.47 130.13,230.48 ZM 659.34 243.01 C659.70,239.54 660.00,233.98 660.00,230.65 C660.00,226.28 660.30,224.90 661.09,225.69 C661.79,226.39 661.97,229.24 661.58,233.64 C661.25,237.41 660.98,242.17 660.97,244.21 C660.96,246.25 660.44,248.23 659.82,248.61 C658.99,249.12 658.86,247.59 659.34,243.01 ZM 449.14 86.78 C449.16,86.97 449.18,87.16 449.20,87.38 C449.48,90.25 449.76,90.47 452.75,90.17 C454.54,90.00 456.00,90.26 456.00,90.76 C456.00,91.26 455.44,91.72 454.75,91.77 C452.87,91.94 451.66,91.98 450.88,92.58 C449.40,93.70 449.42,96.79 449.22,106.34 L 449.00 117.23 L 449.00 103.47 C449.00,96.61 449.06,90.50 449.14,86.78 ZM 148.49 239.64 C148.61,239.54 148.73,239.39 148.87,239.18 C149.53,238.13 150.41,238.26 153.25,239.86 C155.21,240.96 157.08,241.59 157.40,241.26 C157.73,240.93 158.00,241.36 158.00,242.22 C158.00,242.72 158.31,243.24 158.78,243.65 C155.06,242.27 151.64,240.94 148.49,239.64 ZM 281.24 106.75 C281.88,104.81 287.00,104.53 287.00,106.43 C287.00,107.52 286.05,108.00 283.92,108.00 C281.90,108.00 280.98,107.57 281.24,106.75 ZM 792.17 283.13 C791.23,282.53 791.78,282.09 794.02,281.65 C797.78,280.89 800.31,281.98 797.43,283.10 C794.83,284.12 793.75,284.13 792.17,283.13 ZM 146.75 283.31 C145.79,283.06 145.00,282.38 145.00,281.81 C145.00,281.22 145.97,281.03 147.25,281.37 C148.49,281.70 150.18,281.99 151.00,282.00 C152.33,282.03 152.33,282.14 151.00,283.00 C150.18,283.53 149.27,283.92 149.00,283.87 C148.73,283.81 147.71,283.56 146.75,283.31 ZM 720.40 264.60 C720.03,263.65 720.23,262.37 720.83,261.77 C721.63,260.97 722.12,261.14 722.60,262.40 C722.97,263.35 722.77,264.63 722.17,265.23 C721.37,266.03 720.88,265.86 720.40,264.60 ZM 745.97 208.76 C749.35,208.79 753.10,208.78 757.00,208.74 L 781.27 208.50 L 781.04 209.00 L 756.77 208.86 C752.99,208.84 749.32,208.81 745.97,208.76 ZM 190.20 265.80 C188.80,264.40 188.58,262.62 189.91,263.45 C190.42,263.76 191.06,263.45 191.34,262.76 C191.61,262.07 191.88,262.74 191.92,264.25 C192.01,267.36 191.88,267.48 190.20,265.80 ZM 701.18 183.45 C701.63,181.28 703.40,181.14 703.81,183.25 C704.02,184.34 703.53,185.00 702.50,185.00 C701.54,185.00 700.99,184.35 701.18,183.45 ZM 756.78 283.76 C758.47,282.95 759.37,282.97 760.23,283.83 C761.12,284.72 760.58,284.98 757.95,284.93 C754.71,284.87 754.64,284.80 756.78,283.76 ZM 720.69 185.36 C719.89,184.56 720.80,183.00 722.06,183.00 C722.58,183.00 723.00,183.68 723.00,184.50 C723.00,186.05 721.82,186.49 720.69,185.36 ZM 400.23 177.81 C400.85,175.96 403.00,175.65 403.00,177.42 C403.00,178.29 402.29,179.00 401.42,179.00 C400.55,179.00 400.01,178.47 400.23,177.81 ZM 211.48 306.18 C211.31,306.22 211.08,306.29 210.80,306.37 C209.58,306.75 209.27,306.47 209.69,305.37 C210.06,304.40 211.03,304.04 212.34,304.38 C212.91,304.53 213.47,304.55 213.98,304.48 C213.17,305.06 212.34,305.63 211.48,306.18 ZM 307.50 283.00 C307.16,282.45 307.84,282.00 309.00,282.00 C310.16,282.00 310.84,282.45 310.50,283.00 C310.16,283.55 309.49,284.00 309.00,284.00 C308.51,284.00 307.84,283.55 307.50,283.00 Z" fill="rgb(13,36,59)"/>
<path d="M 0.00 223.00 L 0.00 0.00 L 468.50 0.00 L 937.00 0.00 L 937.00 223.00 L 937.00 446.00 L 468.50 446.00 L 0.00 446.00 L 0.00 223.00 ZM 542.90 367.00 C555.76,364.25 566.45,362.00 566.64,362.00 C566.84,362.00 567.00,349.40 567.00,334.00 C567.00,318.60 567.26,306.00 567.58,306.00 C567.90,306.00 570.86,307.58 574.17,309.52 C592.31,320.15 611.61,320.59 631.15,310.81 C649.42,301.66 662.07,283.19 668.29,256.56 C671.25,243.88 671.45,210.56 668.63,198.50 C661.02,165.86 643.18,144.31 618.56,138.01 C600.23,133.33 582.08,136.93 567.85,148.08 C563.76,151.28 563.59,151.14 562.47,143.63 L 561.77 139.00 L 539.39 139.00 L 517.00 139.00 L 517.00 255.50 C517.00,348.43 517.25,372.00 518.26,372.00 C518.95,372.00 530.04,369.75 542.90,367.00 ZM 190.50 315.07 C220.59,307.34 237.54,285.72 235.66,257.47 C234.66,242.42 228.36,230.35 217.07,221.89 C210.94,217.30 198.27,211.00 195.15,211.00 C194.06,211.00 193.02,210.62 192.83,210.15 C192.65,209.68 188.68,208.03 184.00,206.48 C165.68,200.42 159.80,196.29 159.80,189.51 C159.80,184.35 162.93,181.36 169.84,179.93 C180.68,177.68 204.81,182.06 219.75,188.99 L 226.00 191.89 L 226.00 168.14 L 226.00 144.39 L 219.25 142.26 C202.11,136.83 178.25,134.60 161.90,136.91 C127.32,141.79 107.78,163.44 109.25,195.25 C109.65,203.98 110.08,205.78 113.36,212.41 C120.00,225.85 131.33,233.57 159.78,244.02 C175.08,249.64 180.98,253.13 183.53,258.05 C186.24,263.29 183.87,269.48 178.00,272.49 C168.48,277.36 145.16,273.75 122.83,263.97 C117.70,261.72 112.93,259.63 112.23,259.32 C111.22,258.88 111.02,263.66 111.23,282.63 L 111.50 306.49 L 117.47 308.86 C125.23,311.93 140.64,315.84 149.50,316.98 C160.58,318.40 181.26,317.44 190.50,315.07 ZM 318.97 315.94 C321.98,315.28 326.37,313.91 328.72,312.91 L 333.00 311.07 L 333.00 291.04 C333.00,279.52 332.61,271.00 332.08,271.00 C331.58,271.00 328.32,271.73 324.85,272.62 C312.55,275.77 301.70,272.41 297.32,264.09 C295.01,259.70 295.00,259.54 295.00,220.86 L 295.00 182.04 L 313.75 181.77 L 332.50 181.50 L 332.77 160.25 L 333.04 139.00 L 314.02 139.00 L 295.00 139.00 L 295.00 117.50 C295.00,105.68 294.62,96.00 294.15,96.00 C293.42,96.00 254.70,104.03 248.25,105.52 L 246.00 106.04 L 246.00 190.91 C246.00,272.45 246.08,276.04 247.96,282.14 C250.12,289.11 254.46,296.63 259.35,301.88 C265.74,308.74 278.27,315.29 289.00,317.38 C293.14,318.18 313.11,317.22 318.97,315.94 ZM 779.03 316.97 C790.92,315.52 802.27,312.49 810.75,308.51 L 818.00 305.10 L 818.00 285.05 C818.00,274.02 817.83,265.00 817.62,265.00 C817.41,265.00 814.82,266.10 811.87,267.44 C800.10,272.78 776.41,276.87 764.81,275.56 C755.87,274.55 746.85,271.43 741.88,267.64 C736.68,263.66 732.25,256.07 731.36,249.61 L 730.73 245.00 L 779.24 245.00 L 827.75 245.00 L 828.38 241.88 C828.72,240.16 829.00,234.42 828.99,229.12 C828.96,195.62 819.55,168.91 802.07,152.72 C794.66,145.86 789.29,142.62 779.73,139.22 C773.19,136.89 771.03,136.64 757.00,136.59 C742.61,136.54 740.94,136.74 733.74,139.26 C722.66,143.16 715.56,147.48 707.24,155.38 C695.30,166.72 687.22,181.90 682.79,201.31 C681.10,208.73 680.70,213.78 680.71,227.50 C680.73,246.23 682.02,254.52 687.06,268.32 C700.10,304.05 734.71,322.36 779.03,316.97 ZM 398.00 255.08 L 398.00 196.15 L 400.42 193.28 C401.75,191.70 405.23,189.08 408.17,187.45 C413.23,184.65 414.11,184.50 425.25,184.50 L 437.00 184.50 L 437.00 161.77 L 437.00 139.04 L 434.25 138.27 C432.74,137.85 427.67,137.53 423.00,137.56 C412.14,137.64 405.76,140.25 399.57,147.14 C397.16,149.81 394.98,152.00 394.71,152.00 C394.44,152.00 393.93,150.31 393.58,148.25 C393.22,146.19 392.69,143.26 392.39,141.75 L 391.84 139.00 L 370.42 139.00 L 349.00 139.00 L 349.00 226.50 L 349.00 314.00 L 373.50 314.00 L 398.00 314.00 L 398.00 255.08 ZM 499.00 226.50 L 499.00 139.00 L 474.00 139.00 L 449.00 139.00 L 449.00 226.50 L 449.00 314.00 L 474.00 314.00 L 499.00 314.00 L 499.00 226.50 ZM 476.64 118.11 L 498.50 113.42 L 498.77 93.21 C498.99,76.84 498.79,73.00 497.70,73.00 C496.96,73.00 492.12,73.92 486.93,75.03 C467.89,79.14 449.67,83.00 449.34,83.00 C449.15,83.00 449.00,92.21 449.00,103.47 L 449.00 123.95 L 451.89 123.37 C453.47,123.06 464.61,120.69 476.64,118.11 ZM 584.22 272.94 C579.84,272.08 570.76,267.62 568.96,265.46 C568.36,264.73 567.70,249.61 567.32,227.60 L 566.68 190.95 L 569.46 188.05 C575.52,181.71 588.77,178.62 598.14,181.36 C607.25,184.02 613.97,191.93 618.63,205.50 C621.08,212.61 621.39,214.95 621.40,226.50 C621.41,236.15 620.95,241.05 619.62,245.50 C615.35,259.75 607.31,269.64 597.67,272.50 C592.16,274.14 590.59,274.19 584.22,272.94 ZM 731.12 208.11 C728.22,206.25 732.09,192.51 737.50,185.41 C743.39,177.69 757.47,174.63 766.64,179.07 C774.69,182.96 780.49,192.75 781.19,203.62 L 781.50 208.50 L 757.00 208.74 C743.53,208.88 731.88,208.59 731.12,208.11 Z" fill="rgb(254,254,254)"/>
</g>
</svg>